# xmcd
#
# Track frame offsets: 
#        150
#        22187
#        46337
#        77512
#        99250
#        117167
#        138137
#        164812
#        201425
#        221825
#        238662
#
# Disc length: 3717 seconds
#
# Revision: 1
# Processed by: cddbd v1.5.2PL0 Copyright (c) Steve Scherf et al.
# Submitted via: ExactAudioCopy v0.95b3
#
DISCID=990e830b
DTITLE=Chris Harvey - The White Sail
DYEAR=1996
DGENRE=Electronic
TTITLE0=Biomorph
TTITLE1=Allegiance
TTITLE2=Paris
TTITLE3=Secrets From The Screen
TTITLE4=Liber Null - Part 1
TTITLE5=Liber Null - Part 2
TTITLE6=Elation Sedation
TTITLE7=Plasmate
TTITLE8=Pixelize
TTITLE9=Jorg
TTITLE10=The White Sail
EXTD=YEAR: 1996
EXTT0=
EXTT1=
EXTT2=
EXTT3=
EXTT4=
EXTT5=
EXTT6=
EXTT7=
EXTT8=
EXTT9=
EXTT10=
PLAYORDER=
